<svg xmlns="http://www.w3.org/2000/svg" viewBox="0 0 64 64" role="img">
  <g fill="#FFFFFF">
    <circle cx="6.391" cy="43.181" r="0.450" opacity="0.117"/>
    <circle cx="3.057" cy="28.869" r="0.450" opacity="0.117"/>
    <circle cx="10.819" cy="16.391" r="0.450" opacity="0.117"/>
    <circle cx="25.131" cy="13.057" r="0.450" opacity="0.117"/>
    <circle cx="45.131" cy="13.057" r="0.450" opacity="0.117"/>
    <circle cx="57.609" cy="20.819" r="0.450" opacity="0.117"/>
    <circle cx="60.943" cy="35.131" r="0.450" opacity="0.117"/>
    <circle cx="53.181" cy="47.609" r="0.450" opacity="0.117"/>
    <circle cx="18.869" cy="50.943" r="0.450" opacity="0.117"/>
    <circle cx="38.869" cy="50.943" r="0.450" opacity="0.117"/>
    <circle cx="23.813" cy="42.511" r="0.694" opacity="0.218"/>
    <circle cx="40.187" cy="21.489" r="0.694" opacity="0.218"/>
    <circle cx="11.412" cy="45.386" r="0.511" opacity="0.219"/>
    <circle cx="4.933" cy="32.068" r="0.511" opacity="0.219"/>
    <circle cx="11.306" cy="18.699" r="0.511" opacity="0.219"/>
    <circle cx="25.731" cy="15.346" r="0.511" opacity="0.219"/>
    <circle cx="45.731" cy="15.346" r="0.511" opacity="0.219"/>
    <circle cx="57.347" cy="24.534" r="0.511" opacity="0.219"/>
    <circle cx="57.406" cy="39.343" r="0.511" opacity="0.219"/>
    <circle cx="25.864" cy="48.623" r="0.511" opacity="0.219"/>
    <circle cx="45.864" cy="48.623" r="0.511" opacity="0.219"/>
    <circle cx="16.334" cy="45.816" r="0.572" opacity="0.258"/>
    <circle cx="7.201" cy="34.001" r="0.572" opacity="0.258"/>
    <circle cx="12.868" cy="20.184" r="0.572" opacity="0.258"/>
    <circle cx="47.666" cy="18.184" r="0.572" opacity="0.258"/>
    <circle cx="56.799" cy="29.999" r="0.572" opacity="0.258"/>
    <circle cx="51.132" cy="43.816" r="0.572" opacity="0.258"/>
    <circle cx="20.605" cy="44.724" r="0.633" opacity="0.297"/>
    <circle cx="40.605" cy="44.724" r="0.633" opacity="0.297"/>
    <circle cx="9.468" cy="34.605" r="0.633" opacity="0.297"/>
    <circle cx="15.650" cy="20.886" r="0.633" opacity="0.297"/>
    <circle cx="50.607" cy="22.526" r="0.633" opacity="0.297"/>
    <circle cx="53.670" cy="37.259" r="0.633" opacity="0.297"/>
    <circle cx="21.410" cy="34.050" r="0.944" opacity="0.321"/>
    <circle cx="42.590" cy="29.950" r="0.944" opacity="0.321"/>
    <circle cx="43.813" cy="42.511" r="0.694" opacity="0.336"/>
    <circle cx="11.489" cy="33.813" r="0.694" opacity="0.336"/>
    <circle cx="20.187" cy="21.489" r="0.694" opacity="0.336"/>
    <circle cx="52.511" cy="30.187" r="0.694" opacity="0.336"/>
    <circle cx="45.718" cy="39.681" r="0.756" opacity="0.374"/>
    <circle cx="14.319" cy="35.718" r="0.756" opacity="0.374"/>
    <circle cx="18.282" cy="24.319" r="0.756" opacity="0.374"/>
    <circle cx="49.681" cy="28.282" r="0.756" opacity="0.374"/>
    <circle cx="46.272" cy="36.766" r="0.817" opacity="0.413"/>
    <circle cx="17.234" cy="36.272" r="0.817" opacity="0.413"/>
    <circle cx="17.728" cy="27.234" r="0.817" opacity="0.413"/>
    <circle cx="46.766" cy="27.728" r="0.817" opacity="0.413"/>
    <circle cx="45.615" cy="34.266" r="0.878" opacity="0.452"/>
    <circle cx="19.734" cy="35.615" r="0.878" opacity="0.452"/>
    <circle cx="18.385" cy="29.734" r="0.878" opacity="0.452"/>
    <circle cx="44.266" cy="28.385" r="0.878" opacity="0.452"/>
    <circle cx="44.050" cy="32.590" r="0.939" opacity="0.491"/>
    <circle cx="19.950" cy="31.410" r="0.939" opacity="0.491"/>
    <circle cx="35.650" cy="20.886" r="1.350" opacity="0.720"/>
    <circle cx="36.334" cy="45.816" r="1.350" opacity="0.720"/>
    <circle cx="32.868" cy="20.184" r="1.350" opacity="0.720"/>
    <circle cx="27.666" cy="18.184" r="1.350" opacity="0.720"/>
    <circle cx="31.132" cy="43.816" r="1.350" opacity="0.720"/>
    <circle cx="31.412" cy="45.386" r="1.350" opacity="0.720"/>
    <circle cx="31.306" cy="18.699" r="1.350" opacity="0.720"/>
    <circle cx="26.391" cy="43.181" r="1.350" opacity="0.720"/>
    <circle cx="30.819" cy="16.391" r="1.350" opacity="0.720"/>
    <circle cx="37.609" cy="20.819" r="1.350" opacity="0.720"/>
    <circle cx="33.181" cy="47.609" r="1.350" opacity="0.720"/>
    <circle cx="25.718" cy="39.681" r="1.433" opacity="0.747"/>
    <circle cx="38.282" cy="24.319" r="1.433" opacity="0.747"/>
    <circle cx="22.590" cy="29.950" r="1.456" opacity="0.755"/>
    <circle cx="41.410" cy="34.050" r="1.456" opacity="0.755"/>
    <circle cx="30.607" cy="22.526" r="1.460" opacity="0.756"/>
    <circle cx="23.057" cy="28.869" r="1.468" opacity="0.759"/>
    <circle cx="40.943" cy="35.131" r="1.468" opacity="0.759"/>
    <circle cx="37.347" cy="24.534" r="1.490" opacity="0.766"/>
    <circle cx="37.406" cy="39.343" r="1.495" opacity="0.768"/>
    <circle cx="39.734" cy="35.615" r="1.540" opacity="0.783"/>
    <circle cx="24.266" cy="28.385" r="1.540" opacity="0.783"/>
    <circle cx="24.050" cy="32.590" r="1.584" opacity="0.797"/>
    <circle cx="39.950" cy="31.410" r="1.584" opacity="0.797"/>
    <circle cx="26.272" cy="36.766" r="1.624" opacity="0.810"/>
    <circle cx="37.728" cy="27.234" r="1.624" opacity="0.810"/>
    <circle cx="24.933" cy="32.068" r="1.654" opacity="0.820"/>
    <circle cx="25.615" cy="34.266" r="1.676" opacity="0.828"/>
    <circle cx="38.385" cy="29.734" r="1.676" opacity="0.828"/>
    <circle cx="37.234" cy="36.272" r="1.678" opacity="0.828"/>
    <circle cx="26.766" cy="27.728" r="1.678" opacity="0.828"/>
    <circle cx="33.670" cy="37.259" r="1.774" opacity="0.860"/>
    <circle cx="36.799" cy="29.999" r="1.798" opacity="0.868"/>
    <circle cx="27.201" cy="34.001" r="1.798" opacity="0.868"/>
    <circle cx="29.681" cy="28.282" r="1.861" opacity="0.888"/>
    <circle cx="34.319" cy="35.718" r="1.861" opacity="0.888"/>
    <circle cx="29.468" cy="34.605" r="1.919" opacity="0.908"/>
    <circle cx="29.900" cy="31.425" r="1.385" opacity="0.923"/>
    <circle cx="30.950" cy="31.425" r="1.385" opacity="0.923"/>
    <circle cx="32.000" cy="31.425" r="1.385" opacity="0.923"/>
    <circle cx="33.050" cy="31.425" r="1.385" opacity="0.923"/>
    <circle cx="34.100" cy="31.425" r="1.385" opacity="0.923"/>
    <circle cx="29.900" cy="32.575" r="1.385" opacity="0.923"/>
    <circle cx="30.950" cy="32.575" r="1.385" opacity="0.923"/>
    <circle cx="32.000" cy="32.575" r="1.385" opacity="0.923"/>
    <circle cx="33.050" cy="32.575" r="1.385" opacity="0.923"/>
    <circle cx="34.100" cy="32.575" r="1.385" opacity="0.923"/>
    <circle cx="29.900" cy="30.275" r="1.405" opacity="0.930"/>
    <circle cx="30.950" cy="30.275" r="1.405" opacity="0.930"/>
    <circle cx="32.000" cy="30.275" r="1.405" opacity="0.930"/>
    <circle cx="33.050" cy="30.275" r="1.405" opacity="0.930"/>
    <circle cx="34.100" cy="30.275" r="1.405" opacity="0.930"/>
    <circle cx="29.900" cy="33.725" r="1.405" opacity="0.930"/>
    <circle cx="30.950" cy="33.725" r="1.405" opacity="0.930"/>
    <circle cx="32.000" cy="33.725" r="1.405" opacity="0.930"/>
    <circle cx="33.050" cy="33.725" r="1.405" opacity="0.930"/>
    <circle cx="34.100" cy="33.725" r="1.405" opacity="0.930"/>
    <circle cx="29.900" cy="29.125" r="1.425" opacity="0.937"/>
    <circle cx="30.950" cy="29.125" r="1.425" opacity="0.937"/>
    <circle cx="32.000" cy="29.125" r="1.425" opacity="0.937"/>
    <circle cx="33.050" cy="29.125" r="1.425" opacity="0.937"/>
    <circle cx="34.100" cy="29.125" r="1.425" opacity="0.937"/>
    <circle cx="29.900" cy="34.875" r="1.425" opacity="0.937"/>
    <circle cx="30.950" cy="34.875" r="1.425" opacity="0.937"/>
    <circle cx="32.000" cy="34.875" r="1.425" opacity="0.937"/>
    <circle cx="33.050" cy="34.875" r="1.425" opacity="0.937"/>
    <circle cx="34.100" cy="34.875" r="1.425" opacity="0.937"/>
    <circle cx="29.900" cy="27.975" r="1.445" opacity="0.944"/>
    <circle cx="30.950" cy="27.975" r="1.445" opacity="0.944"/>
    <circle cx="32.000" cy="27.975" r="1.445" opacity="0.944"/>
    <circle cx="33.050" cy="27.975" r="1.445" opacity="0.944"/>
    <circle cx="34.100" cy="27.975" r="1.445" opacity="0.944"/>
    <circle cx="29.900" cy="36.025" r="1.445" opacity="0.944"/>
    <circle cx="30.950" cy="36.025" r="1.445" opacity="0.944"/>
    <circle cx="32.000" cy="36.025" r="1.445" opacity="0.944"/>
    <circle cx="33.050" cy="36.025" r="1.445" opacity="0.944"/>
    <circle cx="34.100" cy="36.025" r="1.445" opacity="0.944"/>
    <circle cx="29.900" cy="26.825" r="1.465" opacity="0.951"/>
    <circle cx="30.950" cy="26.825" r="1.465" opacity="0.951"/>
    <circle cx="32.000" cy="26.825" r="1.465" opacity="0.951"/>
    <circle cx="33.050" cy="26.825" r="1.465" opacity="0.951"/>
    <circle cx="34.100" cy="26.825" r="1.465" opacity="0.951"/>
    <circle cx="29.900" cy="37.175" r="1.465" opacity="0.951"/>
    <circle cx="30.950" cy="37.175" r="1.465" opacity="0.951"/>
    <circle cx="32.000" cy="37.175" r="1.465" opacity="0.951"/>
    <circle cx="33.050" cy="37.175" r="1.465" opacity="0.951"/>
    <circle cx="34.100" cy="37.175" r="1.465" opacity="0.951"/>
    <circle cx="31.489" cy="33.813" r="2.054" opacity="0.952"/>
    <circle cx="32.511" cy="30.187" r="2.054" opacity="0.952"/>
    <circle cx="29.900" cy="25.675" r="1.485" opacity="0.959"/>
    <circle cx="30.950" cy="25.675" r="1.485" opacity="0.959"/>
    <circle cx="32.000" cy="25.675" r="1.485" opacity="0.959"/>
    <circle cx="33.050" cy="25.675" r="1.485" opacity="0.959"/>
    <circle cx="34.100" cy="25.675" r="1.485" opacity="0.959"/>
    <circle cx="29.900" cy="38.325" r="1.485" opacity="0.959"/>
    <circle cx="30.950" cy="38.325" r="1.485" opacity="0.959"/>
    <circle cx="32.000" cy="38.325" r="1.485" opacity="0.959"/>
    <circle cx="33.050" cy="38.325" r="1.485" opacity="0.959"/>
    <circle cx="34.100" cy="38.325" r="1.485" opacity="0.959"/>
    <circle cx="29.900" cy="24.525" r="1.505" opacity="0.966"/>
    <circle cx="30.950" cy="24.525" r="1.505" opacity="0.966"/>
    <circle cx="32.000" cy="24.525" r="1.505" opacity="0.966"/>
    <circle cx="33.050" cy="24.525" r="1.505" opacity="0.966"/>
    <circle cx="34.100" cy="24.525" r="1.505" opacity="0.966"/>
    <circle cx="29.900" cy="39.475" r="1.505" opacity="0.966"/>
    <circle cx="30.950" cy="39.475" r="1.505" opacity="0.966"/>
    <circle cx="32.000" cy="39.475" r="1.505" opacity="0.966"/>
    <circle cx="33.050" cy="39.475" r="1.505" opacity="0.966"/>
    <circle cx="34.100" cy="39.475" r="1.505" opacity="0.966"/>
  </g>
</svg>
